<svg width="50" height="40" viewBox="0 0 50 40" fill="none" xmlns="http://www.w3.org/2000/svg">

<path d="M34.6186 24.3506C33.8342 24.3506 33.1605 23.8686 32.8752 23.1875H29.6836C30.0377 25.5997 32.113 27.4611 34.6186 27.4611C37.1242 27.4611 39.1995 25.5997 39.5536 23.1875H36.3619C36.0767 23.8711 35.403 24.3506 34.6186 24.3506Z" fill="#FF5947"/>
<path d="M48.9639 21.6454L44.265 8.95996H40.3431L35.6343 21.6651H40.1021L42.3028 15.4416L44.5035 21.6651H44.5109L46.1534 26.3148H50.7024L48.9713 21.6454H48.9639Z" fill="#67679b"/>
<path d="M28.8918 8.95996H24.9699L20.2635 21.6651H20.2611L18.5325 26.3345H23.0814L24.7313 21.6651L26.9321 15.4416L29.1328 21.6651H33.6006L28.8918 8.95996Z" fill="#67679b"/>


</svg>
